<?xml version="1.0"?>
<svg xmlns="http://www.w3.org/2000/svg" xmlns:xlink="http://www.w3.org/1999/xlink" xmlns:svgjs="http://svgjs.com/svgjs" version="1.1" width="512" height="512" x="0" y="0" viewBox="0 0 512 512" style="enable-background:new 0 0 512 512" xml:space="preserve" class=""><g><g xmlns="http://www.w3.org/2000/svg"><g><path d="m426.861 237.291c-7.763-10.605-19.83-20.038-35.945-28.14v-74.24c0-74.39-60.524-134.911-134.92-134.911-74.39 0-134.91 60.521-134.91 134.91v74.239c-16.117 8.103-28.184 17.536-35.947 28.141-1.254 1.714-1.931 3.783-1.931 5.907v258.803c0 5.523 4.478 10 10 10h119.304c2.939 0 5.729-1.296 7.63-3.539 1.899-2.243 2.717-5.211 2.233-8.111-.833-4.994-5.264-8.49-10.152-8.35h-109.015v-245.344c11.858-14.02 30.311-22.306 47.275-28.211 20.03-6.973 41.237-10.331 62.429-10.331h86.176c21.192 0 42.4 3.358 62.43 10.331 16.967 5.907 35.415 14.19 47.274 28.211v245.344h-107.614c-5.522 0-10 4.477-10 10s4.478 10 10 10h117.614c5.522 0 10-4.477 10-10v-258.803c0-2.124-.677-4.193-1.931-5.906zm-285.775-102.381c0-63.362 51.549-114.91 114.91-114.91 63.367 0 114.92 51.548 114.92 114.91v65.644c-10.564-3.852-21.456-6.81-32.511-8.863v-56.781c0-45.441-36.969-82.41-82.409-82.41-45.436 0-82.4 36.969-82.4 82.41v56.781c-11.053 2.052-21.948 5.008-32.51 8.862zm71.826 53.204c-6.509 0-12.949.293-19.316.853v-54.057c0-34.413 27.993-62.41 62.4-62.41 34.412 0 62.409 27.997 62.409 62.41v54.057c-6.368-.56-12.808-.853-19.317-.853z" fill="#6699ff" data-original="#000000" style="" class=""/><path d="m211.836 420.598c1.895 2.437 4.808 3.862 7.895 3.862h73.539c3.113 0 6.049-1.45 7.941-3.922s2.524-5.685 1.711-8.69l-14.881-54.991c10.613-9.198 16.769-22.496 16.769-36.824 0-26.914-21.896-48.81-48.81-48.81s-48.811 21.896-48.811 48.81c0 14.367 6.188 27.698 16.856 36.899l-14.007 55.063c-.76 2.991-.097 6.166 1.798 8.603zm44.164-129.375c15.886 0 28.81 12.924 28.81 28.81 0 9.968-5.053 19.093-13.517 24.411-3.723 2.339-5.481 6.835-4.332 11.08l13.243 48.937h-47.611l12.485-49.083c1.07-4.207-.696-8.624-4.371-10.933-8.464-5.318-13.518-14.444-13.518-24.411 0-15.887 12.925-28.811 28.811-28.811z" fill="#6699ff" data-original="#000000" style="" class=""/><path d="m266.14 498.18c-1.617-3.944-5.724-6.461-9.971-6.144-4.176.311-7.772 3.271-8.895 7.3-2.375 8.527 7.187 15.738 14.768 11.235 4.201-2.496 5.974-7.887 4.098-12.391z" fill="#6699ff" data-original="#000000" style="" class=""/></g></g></g></svg>
